HIERARCHY
ROOT Hips
{
	OFFSET -0.001795 -0.223333 0.028219
	CHANNELS 6 Xposition Yposition Zposition Zrotation Yrotation Xrotation 
	JOINT LeftUpLeg
	{
		OFFSET 0.069520 -0.091406 -0.006815
		CHANNELS 3 Zrotation Yrotation Xrotation
		JOINT LeftLeg
		{
			OFFSET 0.034277 -0.375199 -0.004496
			CHANNELS 3 Zrotation Yrotation Xrotation
			JOINT LeftFoot
			{
				OFFSET -0.013596 -0.397961 -0.043693
				CHANNELS 3 Zrotation Yrotation Xrotation
				JOINT LeftToe
				{
					OFFSET 0.026358 -0.055791 0.119288
					CHANNELS 3 Zrotation Yrotation Xrotation
					End Site
					{
						OFFSET 0.000000 0.000000 0.000000
					}
				}
			}
		}
	}
	JOINT RightUpLeg
	{
		OFFSET -0.067670 -0.090522 -0.004320
		CHANNELS 3 Zrotation Yrotation Xrotation
		JOINT RightLeg
		{
			OFFSET -0.038290 -0.382569 -0.008850
			CHANNELS 3 Zrotation Yrotation Xrotation
			JOINT RightFoot
			{
				OFFSET 0.015774 -0.398415 -0.042312
				CHANNELS 3 Zrotation Yrotation Xrotation
				JOINT RightToe
				{
					OFFSET -0.025372 -0.048144 0.123348
					CHANNELS 3 Zrotation Yrotation Xrotation
					End Site
					{
						OFFSET 0.000000 0.000000 0.000000
					}
				}
			}
		}
	}
	JOINT Spine
	{
		OFFSET -0.002533 0.108963 -0.026696
		CHANNELS 3 Zrotation Yrotation Xrotation
		JOINT Spine1
		{
			OFFSET 0.005487 0.135180 0.001092
			CHANNELS 3 Zrotation Yrotation Xrotation
			JOINT Spine2
			{
				OFFSET 0.001457 0.052922 0.025425
				CHANNELS 3 Zrotation Yrotation Xrotation
				JOINT Neck
				{
					OFFSET -0.002778 0.213870 -0.042857
					CHANNELS 3 Zrotation Yrotation Xrotation
					JOINT Head
					{
						OFFSET 0.005152 0.064970 0.051349
						CHANNELS 3 Zrotation Yrotation Xrotation
						End Site
						{
							OFFSET 0.000000 0.000000 0.000000
						}
					}
				}
				JOINT LeftShoulder
				{
					OFFSET 0.078845 0.121749 -0.034090
					CHANNELS 3 Zrotation Yrotation Xrotation
					JOINT LeftArm
					{
						OFFSET 0.090977 0.030469 -0.008868
						CHANNELS 3 Zrotation Yrotation Xrotation
						JOINT LeftForeArm
						{
							OFFSET 0.259612 -0.012772 -0.027456
							CHANNELS 3 Zrotation Yrotation Xrotation
							JOINT LeftHand
							{
								OFFSET 0.249234 0.008986 -0.001171
								CHANNELS 3 Zrotation Yrotation Xrotation
								End Site
								{
									OFFSET 0.000000 0.000000 0.000000
								}
							}
						}
					}
				}
				JOINT RightShoulder
				{
					OFFSET -0.081759 0.118833 -0.038615
					CHANNELS 3 Zrotation Yrotation Xrotation
					JOINT RightArm
					{
						OFFSET -0.096012 0.032551 -0.009143
						CHANNELS 3 Zrotation Yrotation Xrotation
						JOINT RightForeArm
						{
							OFFSET -0.253742 -0.013329 -0.021401
							CHANNELS 3 Zrotation Yrotation Xrotation
							JOINT RightHand
							{
								OFFSET -0.255298 0.007772 -0.005559
								CHANNELS 3 Zrotation Yrotation Xrotation
								End Site
								{
									OFFSET 0.000000 0.000000 0.000000
								}
							}
						}
					}
				}
			}
		}
	}
}
MOTION
Frames: 12
Frame Time: 0.050000
0.000000 0.957253 0.000000 -2.127485 2.902088 0.465627 0.632750 0.354003 4.488924 -1.018472 0.174283 -2.740207 3.341546 10.505993 12.755355 0.000000 0.000000 0.000000 0.231927 0.680829 -6.679157 2.121911 -0.152188 4.803313 -2.594809 -10.005076 14.621379 0.000000 0.000000 0.000000 5.177355 -0.879056 9.257563 -5.387143 1.947836 -24.409012 -2.072402 2.214523 27.794687 11.616703 -4.735476 -25.961624 0.000000 0.000000 0.000000 -27.093589 -7.719392 1.697915 -45.460485 -3.435484 -5.981202 -6.557184 -24.822247 2.454252 0.000000 0.000000 0.000000 35.586749 -4.339551 -3.756606 49.569527 6.143298 -5.414345 4.857490 29.062783 2.899170 0.000000 0.000000 0.000000 
-0.000521 0.956241 0.003949 -1.986852 2.724065 1.484750 0.789053 0.289088 3.779158 -1.548916 0.220406 -2.960798 3.456367 10.636011 12.646999 0.000000 0.000000 0.000000 -0.286642 0.697989 -7.071983 2.496117 -0.211660 4.515359 -1.957185 -8.588640 13.185217 0.000000 0.000000 0.000000 5.619457 -0.831695 8.161352 -6.311880 2.157871 -24.220555 -1.944971 2.286871 27.674538 11.844665 -4.617356 -27.208329 0.000000 0.000000 0.000000 -26.135933 -7.221423 1.478585 -46.238339 -3.872381 -5.953797 -6.436587 -25.265657 2.487091 0.000000 0.000000 0.000000 34.882976 -4.959189 -4.219704 51.465624 5.799423 -5.619143 5.005278 30.579471 3.168440 0.000000 0.000000 0.000000 
-0.001106 0.955851 0.007919 -1.467575 3.218241 1.923392 0.736647 0.251871 3.304390 -2.241084 0.265679 -2.560692 3.170124 10.227804 12.601042 0.000000 0.000000 0.000000 -0.650879 0.710950 -7.397447 2.315760 -0.185513 4.706822 -2.405515 -9.317180 13.025079 0.000000 0.000000 0.000000 5.808627 -0.784118 7.412586 -6.850526 2.303126 -23.906218 -1.858260 1.933893 27.887561 10.893698 -4.117434 -26.943193 0.000000 0.000000 0.000000 -25.573868 -7.994796 2.019822 -46.529140 -4.209766 -5.902221 -6.859917 -25.110560 2.564455 0.000000 0.000000 0.000000 34.736296 -4.819906 -4.109648 51.359185 6.274940 -5.430968 5.386761 29.589038 3.128106 0.000000 0.000000 0.000000 
-0.001975 0.956372 0.012579 -1.273807 3.112384 2.093555 0.364851 0.298673 3.629701 -1.844831 0.240896 -2.913558 3.152885 10.268850 12.947680 0.000000 0.000000 0.000000 -1.126028 0.665011 -7.112318 2.565710 -0.226780 4.417157 -1.865860 -8.329372 13.017553 0.000000 0.000000 0.000000 6.076334 -0.796382 7.296325 -7.048093 2.327153 -24.320093 -1.845159 2.564180 28.721707 11.401767 -4.259455 -27.518119 0.000000 0.000000 0.000000 -26.119932 -8.613487 2.209126 -45.849833 -3.885948 -5.940844 -7.505842 -26.402768 2.834778 0.000000 0.000000 0.000000 35.311037 -4.618604 -3.702349 50.679730 6.935229 -5.317365 5.864362 29.733702 3.308158 0.000000 0.000000 0.000000 
-0.003175 0.956718 0.017338 -1.192478 3.080673 2.198759 0.345757 0.304898 3.689629 -1.796602 0.233281 -2.685333 3.146127 10.291320 13.110808 0.000000 0.000000 0.000000 -1.316575 0.619138 -6.667663 2.530353 -0.223635 4.213598 -1.262074 -7.089715 12.536000 0.000000 0.000000 0.000000 5.999097 -0.820615 7.590833 -6.246466 2.164224 -23.700685 -2.104792 2.882428 28.054033 11.620330 -4.387893 -27.074264 0.000000 0.000000 0.000000 -26.079231 -8.975470 2.283102 -45.748357 -4.422219 -5.623293 -9.478620 -27.282948 3.384102 0.000000 0.000000 0.000000 34.935870 -4.189756 -3.224604 50.325581 7.534953 -5.018990 5.991223 29.382508 3.277532 0.000000 0.000000 0.000000 
-0.004843 0.956892 0.022087 -1.136990 3.136643 2.164188 0.229870 0.316666 3.756513 -1.454202 0.196699 -2.218203 3.145303 10.306062 13.153964 0.000000 0.000000 0.000000 -1.464190 0.555269 -5.986165 2.654124 -0.246663 3.899915 -0.867190 -6.180195 11.949987 0.000000 0.000000 0.000000 6.198434 -0.864703 7.865385 -6.495112 2.207600 -24.103840 -1.935392 2.751719 28.631449 11.679596 -4.397638 -27.449755 0.000000 0.000000 0.000000 -26.070933 -9.555029 2.710874 -45.779136 -5.221373 -5.414228 -10.920811 -28.449204 3.916464 0.000000 0.000000 0.000000 34.418918 -3.437688 -2.638279 50.077154 7.781637 -4.943150 6.243188 29.129418 3.279627 0.000000 0.000000 0.000000 
-0.007035 0.956728 0.026797 -1.025142 3.114762 2.364207 0.261485 0.343071 4.088577 -1.439746 0.204502 -2.651565 3.105480 10.275684 13.311677 0.000000 0.000000 0.000000 -1.525648 0.521402 -5.603498 2.727777 -0.262789 3.420523 -0.723162 -5.830758 11.673112 0.000000 0.000000 0.000000 6.374656 -0.891358 7.941580 -6.258181 2.177043 -23.415709 -2.213948 2.533905 28.186022 12.103588 -4.638347 -27.579353 0.000000 0.000000 0.000000 -26.072531 -10.432286 3.322349 -45.933016 -5.728002 -5.216671 -12.338104 -29.166494 4.397385 0.000000 0.000000 0.000000 33.981820 -2.860190 -2.298984 49.923771 8.107350 -4.719260 6.685446 28.992683 3.334181 0.000000 0.000000 0.000000 
-0.009805 0.956163 0.031484 -0.910764 3.302507 2.801102 0.462677 0.326703 4.045197 -1.610426 0.222058 -2.915795 2.996773 10.124953 13.310068 0.000000 0.000000 0.000000 -1.592341 0.523234 -5.637316 2.902396 -0.292479 3.108088 -0.746438 -5.818609 11.562115 0.000000 0.000000 0.000000 6.532471 -0.921382 8.001779 -6.085789 2.137449 -23.389686 -2.417284 1.825844 28.297928 11.812215 -4.511162 -27.833593 0.000000 0.000000 0.000000 -25.978919 -11.111073 3.980141 -46.323547 -6.433669 -5.068476 -14.068616 -30.097389 5.062068 0.000000 0.000000 0.000000 33.142409 -2.361682 -2.146420 49.983477 8.459499 -4.481209 6.969806 28.595181 3.300978 0.000000 0.000000 0.000000 
-0.013160 0.955828 0.036170 -0.806875 3.499689 3.183696 0.614301 0.333906 4.263262 -1.589318 0.227328 -3.326541 2.773320 9.713365 12.950576 0.000000 0.000000 0.000000 -1.546120 0.533711 -5.739711 3.156195 -0.329040 3.255849 -0.993140 -6.109259 10.952796 0.000000 0.000000 0.000000 6.845288 -0.958813 7.996641 -5.920185 2.110076 -23.032156 -2.839186 1.192083 27.997344 11.845997 -4.596965 -27.796541 0.000000 0.000000 0.000000 -25.952810 -11.880199 4.634234 -47.182762 -6.696777 -5.059222 -14.536349 -30.505006 5.300958 0.000000 0.000000 0.000000 32.576401 -1.951777 -2.049945 49.984704 8.489454 -4.352605 7.060288 28.827077 3.317857 0.000000 0.000000 0.000000 
-0.017171 0.955779 0.040873 -0.668277 3.543543 3.711243 0.713385 0.326251 4.252093 -1.496035 0.224188 -3.533195 2.578797 9.324802 12.595839 0.000000 0.000000 0.000000 -1.316658 0.544124 -5.770456 3.218637 -0.338800 3.123538 -1.307048 -6.505497 10.117339 0.000000 0.000000 0.000000 7.172528 -1.000942 7.996063 -5.917654 2.107682 -22.942887 -3.008438 0.678227 27.979146 11.710213 -4.511664 -28.160170 0.000000 0.000000 0.000000 -26.063034 -12.618950 5.283127 -47.559254 -6.979603 -5.011744 -15.036564 -30.501283 5.469837 0.000000 0.000000 0.000000 32.127745 -1.682449 -2.047873 49.894824 8.649176 -4.198649 6.996583 28.659538 3.245522 0.000000 0.000000 0.000000 
-0.021767 0.955701 0.045855 -0.555093 3.635236 4.039193 0.905222 0.302829 4.118956 -1.371773 0.207253 -3.149389 2.328323 8.836585 12.191541 0.000000 0.000000 0.000000 -1.156170 0.582109 -6.149717 3.569213 -0.387571 3.610567 -1.778740 -7.396443 9.951814 0.000000 0.000000 0.000000 7.510751 -1.081938 8.354606 -5.816312 2.073771 -23.083869 -3.416535 0.217860 27.945096 11.756926 -4.497311 -28.677989 0.000000 0.000000 0.000000 -26.273951 -13.045310 5.714941 -47.854035 -6.951960 -5.076685 -14.725072 -30.387893 5.387279 0.000000 0.000000 0.000000 31.841410 -1.637877 -2.177819 49.657805 8.602875 -4.143208 6.568726 28.558687 3.102330 0.000000 0.000000 0.000000 
-0.026835 0.955292 0.051458 -0.436823 3.760179 4.366765 1.226701 0.277200 4.067985 -1.694892 0.221154 -2.657528 2.471039 8.831313 11.279015 0.000000 0.000000 0.000000 -0.852708 0.594296 -6.181383 3.626858 -0.396958 3.668689 -2.110590 -7.954067 9.544970 0.000000 0.000000 0.000000 7.895750 -1.164750 8.657938 -5.879915 2.087415 -23.085327 -3.720849 -0.202951 27.727042 11.600826 -4.399666 -28.879359 0.000000 0.000000 0.000000 -26.248230 -13.496586 6.120515 -48.084311 -7.189644 -5.002289 -13.943980 -29.801739 5.075113 0.000000 0.000000 0.000000 31.730129 -1.857423 -2.502788 49.075129 8.214544 -4.178390 6.156805 28.747057 2.996038 0.000000 0.000000 0.000000 
